<?xml version="1.0" standalone="no"?>
<!DOCTYPE svg PUBLIC "-//W3C//DTD SVG 20010904//EN"
 "http://www.w3.org/TR/2001/REC-SVG-20010904/DTD/svg10.dtd">
<svg version="1.0" xmlns="http://www.w3.org/2000/svg"
 width="1024.000000pt" height="1024.000000pt" viewBox="0 0 1024.000000 1024.000000"
 preserveAspectRatio="xMidYMid meet">

<g transform="translate(0.000000,1024.000000) scale(0.100000,-0.100000)"
fill="#000000" stroke="none">
<path d="M5205 9888 c-9 -64 -1 -1205 8 -1215 5 -4 171 -9 370 -11 270 -2 363
-6 369 -15 13 -21 10 -611 -4 -625 -9 -9 -389 -12 -1649 -12 l-1636 0 -49 -21
c-56 -24 -151 -118 -161 -158 -3 -14 -12 -38 -19 -53 -16 -31 -50 -270 -59
-408 -3 -52 -12 -144 -20 -205 -8 -60 -19 -150 -25 -200 -10 -97 -25 -223 -41
-350 -5 -44 -14 -132 -20 -195 -5 -63 -17 -153 -24 -200 -8 -47 -17 -128 -21
-180 -3 -52 -10 -117 -15 -145 -6 -27 -17 -111 -25 -185 -19 -190 -33 -302
-46 -395 -6 -44 -14 -239 -17 -433 -5 -298 -8 -354 -21 -362 -8 -5 -64 -10
-123 -10 -93 0 -114 -3 -150 -23 -51 -27 -114 -91 -132 -135 -8 -17 -19 -32
-24 -32 -8 0 -11 -172 -11 -550 0 -302 4 -550 9 -550 4 0 20 -20 36 -43 31
-50 119 -123 159 -133 15 -3 30 -13 33 -20 4 -12 506 -14 3224 -14 2050 0
3219 3 3219 10 0 5 18 15 41 21 46 14 142 111 165 166 8 18 19 33 24 33 7 0
10 192 10 540 0 348 -3 540 -10 540 -5 0 -16 15 -24 33 -19 41 -39 63 -104
115 l-54 42 -117 0 c-78 0 -121 4 -129 12 -9 9 -12 96 -13 328 0 173 -4 338
-10 365 -5 28 -14 95 -19 150 -6 55 -17 141 -25 190 -8 50 -17 124 -20 165 -3
41 -12 113 -20 160 -8 47 -18 130 -24 185 -5 55 -15 137 -21 183 -5 45 -15
119 -20 165 -6 45 -16 127 -21 182 -6 55 -16 138 -24 185 -8 47 -17 126 -20
175 -4 50 -13 126 -20 170 -7 44 -16 125 -20 180 -3 55 -10 116 -15 135 -5 19
-13 87 -18 150 -13 165 -47 262 -116 338 -71 78 -64 76 -486 82 l-375 5 0 320
0 320 370 5 c204 3 371 7 373 8 1 1 2 286 2 632 l0 630 -1194 0 -1195 0 -6
-42z m2095 -267 c12 -23 14 -629 2 -649 -7 -10 -194 -12 -903 -10 l-894 3 -3
324 c-2 230 1 328 9 337 10 12 159 14 895 14 863 0 884 0 894 -19z m-752
-1260 c2 -229 -1 -296 -10 -303 -19 -11 -246 -10 -269 2 -18 10 -19 24 -19
293 0 210 3 286 12 295 9 9 51 12 148 10 l135 -3 3 -294z m942 -651 c24 -13
36 -61 44 -170 4 -47 13 -125 21 -175 8 -49 19 -133 24 -185 6 -52 15 -132 20
-177 27 -210 32 -254 42 -343 5 -52 16 -138 24 -190 8 -52 17 -126 20 -165 3
-38 12 -113 20 -165 8 -52 19 -138 24 -190 6 -52 15 -132 21 -177 5 -46 15
-120 20 -165 6 -46 15 -123 21 -173 5 -49 14 -121 20 -160 23 -161 30 -281 27
-485 -2 -118 -7 -221 -11 -227 -7 -10 -557 -13 -2697 -13 -1478 0 -2695 3
-2704 6 -14 5 -16 42 -16 306 0 215 4 325 14 387 8 47 19 129 25 181 5 52 15
129 20 170 6 41 15 114 21 163 26 219 31 266 40 332 5 39 16 134 25 213 8 79
17 147 20 152 3 5 10 57 15 117 5 59 16 155 25 213 8 58 19 143 25 190 5 47
14 122 20 168 5 45 15 119 20 165 11 87 27 227 36 315 4 34 13 61 25 73 19 19
66 19 2375 19 1577 0 2362 -3 2374 -10z m788 -3502 c19 -19 17 -847 -2 -874
-14 -19 -59 -19 -3139 -22 -2023 -1 -3135 1 -3151 8 l-26 10 0 438 c0 241 3
442 7 445 3 4 1422 7 3153 7 2433 0 3149 -3 3158 -12z"/>
<path d="M2946 7299 c-8 -40 -8 -1177 0 -1207 l6 -22 892 2 891 3 0 625 0 625
-891 3 -891 2 -7 -31z m1492 -276 c9 -23 9 -623 0 -646 -7 -16 -43 -17 -600
-15 l-593 3 -3 329 c-2 257 1 331 10 338 7 4 275 8 596 8 546 0 583 -1 590
-17z"/>
<path d="M5204 7287 c-2 -7 -3 -74 -2 -148 l3 -134 140 0 140 0 0 145 0 145
-138 3 c-107 2 -139 0 -143 -11z"/>
<path d="M5657 7293 c-13 -12 -8 -268 5 -281 8 -8 53 -12 138 -12 85 0 130 4
138 12 8 8 12 53 12 138 0 85 -4 130 -12 138 -13 13 -269 18 -281 5z"/>
<path d="M6112 7288 c-17 -17 -17 -259 0 -276 18 -18 262 -17 277 2 8 9 11 57
9 147 l-3 134 -135 3 c-97 2 -139 -1 -148 -10z"/>
<path d="M6637 7293 c-13 -12 -8 -268 5 -281 19 -19 561 -17 577 2 8 9 11 57
9 147 l-3 134 -291 3 c-160 1 -293 -1 -297 -5z"/>
<path d="M5204 6837 c-2 -7 -3 -74 -2 -148 l3 -134 140 0 140 0 0 145 0 145
-138 3 c-107 2 -139 0 -143 -11z"/>
<path d="M5661 6836 c-8 -9 -11 -57 -9 -147 l3 -134 134 -3 c90 -2 138 1 147
9 19 15 20 259 2 277 -18 18 -262 17 -277 -2z"/>
<path d="M6112 6838 c-18 -18 -17 -262 2 -277 9 -8 57 -11 147 -9 l134 3 3
139 c2 105 -1 141 -10 148 -21 13 -262 10 -276 -4z"/>
<path d="M6642 6842 c-9 -7 -12 -43 -10 -148 l3 -139 289 -3 c225 -2 291 1
298 10 13 21 10 262 -4 276 -14 14 -554 17 -576 4z"/>
<path d="M5204 6377 c-2 -7 -3 -71 -2 -143 l3 -129 143 -3 142 -3 0 146 0 145
-140 0 c-106 0 -142 -3 -146 -13z"/>
<path d="M5654 6377 c-2 -7 -3 -71 -2 -143 l3 -129 145 0 145 0 0 140 0 140
-143 3 c-111 2 -144 0 -148 -11z"/>
<path d="M6107 6384 c-10 -10 -8 -256 1 -272 7 -9 43 -12 148 -10 l139 3 0
140 0 140 -141 3 c-77 1 -143 -1 -147 -4z"/>
<path d="M6634 6377 c-2 -7 -3 -71 -2 -143 l3 -129 295 0 295 0 0 140 0 140
-293 3 c-235 2 -294 0 -298 -11z"/>
<path d="M4921 2390 c-49 -73 -192 -222 -294 -307 -116 -96 -219 -165 -349
-233 l-107 -56 36 -44 c29 -37 61 -84 130 -189 4 -7 109 48 218 114 l105 64 0
-70 0 -69 460 0 460 0 0 75 c0 41 3 75 8 75 4 0 40 -20 79 -45 75 -46 233
-129 237 -123 2 2 29 44 61 93 32 50 71 105 87 124 16 18 26 37 21 41 -4 4
-39 19 -78 34 -238 93 -495 279 -655 474 l-75 91 -155 0 -155 0 -34 -49z m401
-431 c46 -39 90 -78 98 -85 12 -12 -32 -14 -290 -14 l-305 0 90 84 c50 46 116
115 149 154 l58 70 59 -68 c32 -38 96 -101 141 -141z"/>
<path d="M7380 2115 l0 -325 -197 -2 -198 -3 -3 -142 -3 -143 201 0 200 0 0
-470 0 -470 145 0 145 0 0 470 0 470 195 0 195 0 0 145 0 145 -195 0 -195 0 0
325 0 325 -145 0 -145 0 0 -325z"/>
<path d="M2897 2395 c-54 -7 -100 -15 -103 -18 -4 -3 0 -51 8 -105 l14 -100
-130 -17 c-130 -16 -282 -46 -322 -62 l-21 -8 29 -130 c16 -71 30 -130 31
-132 2 -1 56 9 122 22 135 28 312 51 321 42 3 -3 8 -41 11 -84 l5 -78 -68 -19
c-142 -40 -314 -149 -402 -254 -136 -163 -189 -372 -133 -523 61 -161 175
-243 355 -256 146 -10 265 28 355 112 116 108 175 284 189 564 7 126 7 126 33
129 43 5 171 -26 234 -57 84 -42 139 -92 171 -157 23 -47 26 -63 22 -119 -3
-36 -16 -85 -29 -112 -28 -59 -147 -179 -211 -213 -27 -14 -48 -27 -48 -30 1
-6 228 -183 242 -188 5 -2 38 15 74 39 167 109 274 303 274 499 0 155 -52 272
-175 396 -126 126 -267 189 -485 215 -52 6 -97 13 -99 15 -2 2 -6 38 -9 80
l-5 76 196 -4 196 -4 3 48 3 48 114 -139 c62 -76 138 -174 168 -217 30 -44 59
-78 64 -76 27 7 219 144 219 156 0 42 -324 466 -357 466 -3 0 -50 -40 -104
-90 -53 -49 -100 -90 -105 -90 -4 0 -4 38 0 85 l6 85 -218 0 -219 0 -17 101
c-9 56 -19 106 -22 110 -7 11 -55 10 -177 -6z m-17 -1012 c0 -88 -20 -222 -41
-278 -39 -104 -93 -145 -192 -145 -164 0 -166 189 -4 336 55 49 195 133 225
134 8 0 12 -16 12 -47z"/>
<path d="M6270 2285 l0 -105 325 0 325 0 0 105 0 105 -325 0 -325 0 0 -105z"/>
<path d="M6160 2010 l0 -110 415 0 415 0 0 110 0 110 -415 0 -415 0 0 -110z"/>
<path d="M6260 1725 l0 -105 325 0 325 0 0 105 0 105 -325 0 -325 0 0 -105z"/>
<path d="M6260 1455 l0 -105 325 0 325 0 0 105 0 105 -325 0 -325 0 0 -105z"/>
<path d="M4300 1340 l0 -130 214 0 215 0 -25 -72 c-46 -139 -88 -227 -109
-232 -11 -3 -80 -6 -154 -6 l-134 0 7 -47 c3 -27 12 -90 18 -142 l12 -94 155
7 c265 11 941 45 1033 52 l87 6 38 -59 38 -59 125 74 c69 41 129 78 133 82 18
16 -135 210 -297 377 l-109 113 202 0 201 0 0 130 0 130 -825 0 -825 0 0 -130z
m1160 -134 c0 -3 -45 -28 -100 -58 l-100 -52 77 -78 c42 -43 75 -79 72 -82 -2
-2 -111 -7 -241 -11 l-237 -8 76 147 76 146 189 0 c103 0 188 -2 188 -4z"/>
<path d="M6252 938 l3 -343 123 -3 122 -3 0 36 0 35 205 0 205 0 0 310 0 310
-330 0 -330 0 2 -342z m408 37 l0 -85 -80 0 -80 0 0 85 0 85 80 0 80 0 0 -85z"/>
</g>
</svg>
